<svg
                    xmlns="http://www.w3.org/2000/svg"
                    xmlns:xlink="http://www.w3.org/1999/xlink" viewBox="0 0 953.23 585.68">
                    <defs>
                        <style>.cls-1{fill:url(#flame-sfuma);}.cls-2{fill:url(#flame-sfuma-2);}.cls-3{fill:#fcba04;}.cls-4{fill:url(#flame-sfuma-3);}</style>
                        <linearGradient id="flame-sfuma" x1="584.99" y1="129.24" x2="886.41" y2="129.24" gradientUnits="userSpaceOnUse">
                            <stop offset="0" stop-color="#fcba04"/>
                            <stop offset="1" stop-color="#fe8005"/>
                        </linearGradient>
                        <linearGradient id="flame-sfuma-2" x1="692.75" y1="476.31" x2="881.8" y2="476.31" xlink:href="#flame-sfuma"/>
                        <linearGradient id="flame-sfuma-3" x1="0" y1="317.46" x2="173.97" y2="317.46" xlink:href="#flame-sfuma"/>
                    </defs>
                    <g id="group" data-name="group">
                            <path class="cls-1" d="M764.44,73.41C756.16,17.17,731.84,0,731.84,0,841.33,64.41,886.41,258.49,886.41,258.49,737.85,55,585,63.55,585,63.55S679.08,30,764.44,73.4"/>
                            <path class="cls-2" d="M692.75,454.53S742.39,443.31,790.3,477s91.5,31.08,91.5,31.08-32-3.71-57-32.79c-24.27-28.2-54-41.24-132-20.73"/>
                            <path class="cls-3" d="M935.4,584.2c22.33,5.53,17.89-5.85,16.58-11.06-1.39-5.48-4.27-11.79-17.61-15.49C915.24,552.35,910.14,578,935.4,584.2Z"/>
                            <path class="cls-3" d="M184.88,434.92c9.87-6.48,7.87-8.5,5.37-9.86s-9.28-1.23-15.33,2.5C166.24,432.91,173.72,442.26,184.88,434.92Z"/>
                            <path class="cls-4" d="M34.46,336.59c-22.07-26-12.39-78.1-12.39-78.1s21.14,75.89,67.1,92.6c42.48,15.44,84.8,4.57,84.8,4.57-75.44,30.61-99.4,21.27-125.29,10.54C14.39,352,0,317.24,0,317.24,17.63,331.92,30,336.78,34.46,336.59Z"/>
                            <path class="cls-3" d="M469.94,123.1c-1.33.85-4.31,4.35-1.37,6.14s8.5-1.29,9.79-3.07C479.84,124.13,477.49,118.29,469.94,123.1Z"/>
                            <path class="cls-3" d="M529.93,212.34c-3.13-.67-11.57-1.75-14.63,7-2.78,8-2.43,11.17.75,12.31,6.26,2.26,16.89-.23,19-5.6C537.44,220.16,534.93,213.42,529.93,212.34Z"/>
                    </g>

                    <style>
                    @keyframes float {
                    50% {
                        transform: translate(18px, 15px);
                    }
                    }
                    .cls-3{
                        animation: float 6s ease-out infinite;
                    }
                    </style>
                </svg>