<svg xmlns="http://www.w3.org/2000/svg" width="599.042" height="104" viewBox="0 0 599.042 104">
  <g id="Group_22" data-name="Group 22" transform="translate(-4731.974 -488)">
    <path id="Path_55" data-name="Path 55" d="M4862.888,566.146a.545.545,0,0,1-.545-.545V550.878a.546.546,0,0,1,.546-.546H4896.3a.545.545,0,0,0,.544-.545V535.064a.546.546,0,0,0-.546-.546h-33.412a.545.545,0,0,1-.545-.545v-17.6a.546.546,0,0,1,.546-.547h39.162a.546.546,0,0,0,.546-.546V500.56a.547.547,0,0,0-.546-.546H4844.2a.547.547,0,0,0-.547.546v83.729a.547.547,0,0,0,.547.547h59.29a.545.545,0,0,0,.545-.545V567.235a.547.547,0,0,0-.545-.546l.545-.543Z" fill="#fff"/>
    <path id="Path_56" data-name="Path 56" d="M4834.933,533.08h-40.088a1.509,1.509,0,0,0-1.509,1.51v14.234a1.508,1.508,0,0,0,1.508,1.508h20.681c-.309,5.575-3.434,11.048-8.626,15.074-5.794,4.495-13.819,6.969-22.6,6.969-15.071,0-31.864-12.415-31.864-30.231,0-18.732,15.686-34.556,34.253-34.556,10.376,0,18.7,6.277,22.734,10.019a1.585,1.585,0,0,0,2.148-.011l13.4-12.705a1.406,1.406,0,0,0-.009-2.068A55.972,55.972,0,0,0,4786.691,488c-.591,0-1.182.01-1.777.026a55.808,55.808,0,0,0-37.193,15.541,49.863,49.863,0,0,0,.012,72.743,55.835,55.835,0,0,0,38.958,15.451,55.062,55.062,0,0,0,34.658-12.235c9.748-8.08,15.116-18.777,15.116-30.119V534.532A1.5,1.5,0,0,0,4834.933,533.08Z" fill="#fff"/>
    <path id="Path_57" data-name="Path 57" d="M5330.47,566.689l.546-.543H5289.87a.544.544,0,0,1-.545-.545V550.878a.546.546,0,0,1,.546-.546h33.411a.546.546,0,0,0,.546-.546V535.064a.546.546,0,0,0-.546-.546H5289.87a.544.544,0,0,1-.545-.545v-17.6a.546.546,0,0,1,.546-.547h39.163a.545.545,0,0,0,.545-.545V500.559a.545.545,0,0,0-.545-.545h-57.852a.547.547,0,0,0-.547.546v83.729a.547.547,0,0,0,.547.547h59.288a.546.546,0,0,0,.546-.547V567.235A.546.546,0,0,0,5330.47,566.689Z" fill="#fff"/>
    <path id="Path_58" data-name="Path 58" d="M5261.915,533.08h-40.088a1.51,1.51,0,0,0-1.51,1.51v14.234a1.509,1.509,0,0,0,1.509,1.508h20.681c-.31,5.575-3.434,11.048-8.626,15.074-5.794,4.495-13.82,6.969-22.6,6.969-15.071,0-31.864-12.415-31.864-30.231,0-18.732,15.686-34.556,34.253-34.556,10.375,0,18.7,6.277,22.734,10.019a1.585,1.585,0,0,0,2.148-.011l13.4-12.705a1.407,1.407,0,0,0-.01-2.068A55.967,55.967,0,0,0,5213.673,488c-.591,0-1.182.01-1.777.026a55.81,55.81,0,0,0-37.193,15.541,49.863,49.863,0,0,0,.012,72.743,55.835,55.835,0,0,0,38.958,15.451,55.061,55.061,0,0,0,34.658-12.235c9.746-8.08,15.116-18.777,15.116-30.119V534.532A1.5,1.5,0,0,0,5261.915,533.08Z" fill="#fff"/>
    <path id="Path_59" data-name="Path 59" d="M5137.475,550.8a.54.54,0,0,1,.276-.752,26.541,26.541,0,0,0,16.449-25.075c-.278-14.575-12.675-26.022-27.252-26.022h-39.315a.545.545,0,0,0-.544.545v33.414a.545.545,0,0,1-.545.544h-8.113A50.211,50.211,0,0,0,5052.61,497.6c5.558,5.81,8.22,15.48,8.2,23.368-.024,12.035-7.586,23.672-21.03,29.314,15.833-2.723,21.191-8.833,22.124-17.619a27.716,27.716,0,0,1,1.132,6.923c.585,16.537-13.559,30.522-31.591,31.241a36.435,36.435,0,0,1-4.836-.138c-18.119-1.783-26.206-15.219-20.49-32.208a25.747,25.747,0,0,0-4.744,16.214,24.564,24.564,0,0,1-2.632-10.17c-.35-9.86,5.174-18.705,13.679-23.679,6.185-4.12,10.95-5.439,19.762-8.048,15.867-4.32,16.1-13.745,15.555-17.468q-2.115-.854-4.321-1.521c3.949,10.014-6.545,15.747-17.615,18.937,6.655-4.8,13.862-11.633,15.336-19.565a50.184,50.184,0,0,0-61.563,39.9h-43.917v-23H4981.6a1.51,1.51,0,0,0,1.509-1.51V491.46a1.513,1.513,0,0,0-1.509-1.509h-65.988a1.509,1.509,0,0,0-1.51,1.509v97.617a1.513,1.513,0,0,0,1.51,1.509h18.545a1.514,1.514,0,0,0,1.51-1.509V551.77H4979.8a50.169,50.169,0,0,0,98.551-1.061h8.19a.547.547,0,0,1,.547.547V586.1a.546.546,0,0,0,.546.546h17.6a.545.545,0,0,0,.546-.546V551.256a.547.547,0,0,1,.546-.547h12.588a.549.549,0,0,1,.489.3l17.981,35.341a.557.557,0,0,0,.493.3H5155.6a.546.546,0,0,0,.482-.8Zm-8.288-17.346h-22.863a.546.546,0,0,1-.546-.546V513.877a.547.547,0,0,1,.546-.547h21.635C5140.285,513.33,5141.378,533.457,5129.187,533.457Z" fill="#fff"/>
  </g>
</svg>
