<svg xmlns="http://www.w3.org/2000/svg" width="40" height="40" viewBox="0 0 40 40"><path d="M412.378,61.549c2.217,2.317,3.278,6.172,3.272,9.318-.009,4.8-3.025,9.439-8.385,11.688,6.313-1.086,8.45-3.522,8.822-7.025a11.034,11.034,0,0,1,.451,2.76c.233,6.594-5.406,12.171-12.6,12.457a14.574,14.574,0,0,1-1.928-.055c-7.225-.711-10.449-6.069-8.17-12.842a10.267,10.267,0,0,0-1.892,6.465,9.808,9.808,0,0,1-1.049-4.056,10.585,10.585,0,0,1,5.454-9.441c2.466-1.643,4.366-2.168,7.879-3.209,6.327-1.722,6.419-5.481,6.2-6.965q-.843-.34-1.723-.607c1.575,3.993-2.609,6.279-7.023,7.551,2.653-1.916,5.527-4.639,6.115-7.8a20,20,0,1,0,4.572,1.762" transform="translate(-382.955 -59.191)" fill="#131c25"/></svg>